<?xml version="1.0" encoding="UTF-8" standalone="no"?>
<!DOCTYPE svg PUBLIC "-//W3C//DTD SVG 1.1//EN" "http://www.w3.org/Graphics/SVG/1.1/DTD/svg11.dtd">
<!-- Created with Vectornator (http://vectornator.io/) -->
<svg height="100%" stroke-miterlimit="10" style="fill-rule:nonzero;clip-rule:evenodd;stroke-linecap:round;stroke-linejoin:round;" version="1.1" viewBox="0 0 1280 720" width="100%" xml:space="preserve" xmlns="http://www.w3.org/2000/svg" xmlns:xlink="http://www.w3.org/1999/xlink">
<defs/>
<g id="Layer-3">
<path d="M188.947 585.368C188.947 540.846 224.961 504.754 269.385 504.754C313.81 504.754 349.823 540.846 349.823 585.368C349.823 629.89 313.81 665.982 269.385 665.982C224.961 665.982 188.947 629.89 188.947 585.368Z" fill="#1f1f27" fill-rule="nonzero" opacity="1" stroke="none"/>
<path d="M941.282 585.368C941.282 540.846 977.295 504.754 1021.72 504.754C1066.14 504.754 1102.16 540.846 1102.16 585.368C1102.16 629.89 1066.14 665.982 1021.72 665.982C977.295 665.982 941.282 629.89 941.282 585.368Z" fill="#1f1f27" fill-rule="nonzero" opacity="1" stroke="none"/>
<path d="M14.6228 467.731C14.6228 419.624 53.1989 380.625 100.785 380.625C148.371 380.625 186.947 419.624 186.947 467.731C186.947 515.838 148.371 554.836 100.785 554.836C53.1989 554.836 14.6228 515.838 14.6228 467.731Z" fill="#1f1f27" fill-rule="nonzero" opacity="1" stroke="none"/>
</g>
<g id="Layer-1">
<g opacity="1">
<g opacity="1">
<path d="M433.726 177.486C430.584 177.486 427.855 178.045 426.64 179.031C424.782 180.522 425.034 180.637 430.745 180.061C438.679 179.258 440.743 177.486 433.726 177.486ZM472.757 180.575C471.725 180.627 471.037 181.109 470.693 182.017C469.157 186.051 474.913 197.577 477.894 196.43C481.059 195.217 480.302 183.223 476.977 181.708C475.211 180.907 473.789 180.522 472.757 180.575ZM415.196 182.737C414.623 182.62 413.591 183.07 412.009 184.177C409.647 185.838 409.073 190.268 410.679 194.371C411.321 196.045 411.527 196.135 412.33 194.885C414.967 190.651 423.636 189.133 427.144 192.312C428.887 193.883 429.208 193.949 429.208 192.621C429.208 188.42 423.475 186.98 417.765 189.739L413.545 191.798L414.164 189.532C414.508 188.282 415.059 186.175 415.403 184.9C415.793 183.542 415.77 182.852 415.196 182.737ZM453.609 187.886C452.416 187.865 451.453 188.314 450.008 189.326C448.747 190.206 447.738 191.58 447.738 192.415C447.738 193.582 448.472 193.431 450.834 191.695C453.746 189.53 453.953 189.514 457.92 191.076C463.034 193.082 463.424 191.807 458.447 189.429C456.2 188.36 454.801 187.904 453.609 187.886ZM422.512 194.061C421.755 193.958 420.93 194.314 420.242 195.194C416.962 199.428 418.292 205.181 422.512 205.181C424.438 205.181 425.195 204.535 425.7 202.505C426.709 198.469 424.736 194.373 422.512 194.061ZM456.796 194.061C456.016 194.215 455.237 194.997 454.228 196.534C451.063 201.356 455.443 207.587 459.571 204.152C461.543 202.514 461.497 197.529 459.479 195.504C458.356 194.389 457.576 193.908 456.796 194.061ZM512.293 221.757C508.876 221.879 505.482 222.402 503.739 223.303C489.2 230.852 484.246 253.232 495.827 259.337L500.345 261.706L495.094 264.896C487.09 269.819 469.363 296.529 469.363 303.608C469.363 305.849 508.945 305.48 514.655 303.195L518.989 301.549L518.256 291.871C517.522 280.712 515.412 272.695 511.88 267.471C508.601 262.641 508.739 261.807 512.591 261.807C514.953 261.807 516.88 260.722 519.815 257.791L523.828 253.778L523.828 238.746L523.828 223.713L521.145 222.684C519.127 221.915 515.71 221.638 512.293 221.757ZM322.64 251.923C321.448 252.118 320.118 252.973 318.834 254.395C316.701 256.755 316.793 259.25 319.132 268.911L320.989 276.633L326.562 276.325C333.625 275.876 333.327 276.447 331.194 266.029C329.176 256.2 326.218 251.34 322.64 251.923ZM322.64 283.634C322.273 283.616 322.434 284.065 322.755 285.076C323.099 286.212 324.2 291.039 325.209 295.784L327.066 304.431L333.556 304.741C338.877 304.993 340 304.73 339.519 303.505C339.221 302.689 338.372 299.168 337.684 295.577C336.331 288.592 335.528 287.471 331.699 287.443C330.346 287.436 327.594 286.498 325.622 285.283C323.879 284.198 323.007 283.652 322.64 283.634ZM253.453 293.621C252.742 293.621 252.444 295.568 252.627 298.976L252.948 304.431L273.427 304.741C284.71 304.892 293.608 304.748 293.31 304.431C292.667 303.789 255.196 293.621 253.453 293.621ZM1029.54 471.943C1023.21 471.431 1016.79 471.525 1010.5 472.149C971.083 476.059 937.899 494.373 915.678 524.449C902.95 541.665 893.204 568.647 891.369 591.99L890.865 598.889L905.175 598.889L919.485 598.889L920.104 601.771C932.694 662.504 990.209 697.609 1049.01 680.533C1082.15 670.902 1111.57 638.562 1117.99 604.551L1119.23 597.859L1133.12 597.859L1147.02 597.859L1146.4 587.872C1146.04 582.359 1145.28 576.261 1144.75 574.282C1141.54 561.949 1139.96 557.17 1135.79 547.513C1117.81 505.787 1073.94 475.516 1029.54 471.943ZM1020.27 515.698C1024.68 515.785 1029.19 516.283 1033.87 517.244C1069.62 524.589 1094.21 562.112 1086.69 597.859C1077.01 643.933 1024.17 667.15 983.627 643.057C922.282 606.61 954.388 514.416 1020.27 515.698ZM260.149 472.149C193.851 478.279 147.275 524.353 140.624 590.445L139.684 598.889L153.902 598.889L168.006 598.889L169.129 603.315C180.619 649.588 212.22 678.646 257.259 684.342C305.166 690.401 356.397 654.768 365.478 609.183C367.657 598.279 366.671 598.889 382.678 598.889L396.575 598.889L395.956 592.504C390.567 542.11 366.694 506.319 324.498 485.223C305.762 475.86 278.839 470.418 260.149 472.149ZM266.845 515.698C272.028 515.593 277.348 516.111 282.692 517.244C335.758 528.488 354.792 594.318 316.15 632.966C273.45 675.665 199.859 644.793 199.722 584.063C199.63 546.086 230.52 516.444 266.845 515.698ZM8.00489 489.959L5.43644 492.431C0.689391 496.829 0.528863 508.208 4.7026 541.027C8.83047 573.238 15.1828 580.169 44.9723 584.989C78.752 590.465 100.033 593.715 105.606 594.357L111.385 595.079L112.096 587.975C115.238 554.408 128.86 522.461 150.806 497.063C153.558 493.878 155.76 490.924 155.76 490.578C155.76 490.229 122.553 489.961 81.9396 489.959L8.00489 489.959ZM643.559 489.959C392.08 489.959 379.88 490.087 380.82 491.814C381.348 492.807 382.747 494.495 384.008 495.623C403.615 513.24 421.709 555.83 423.957 589.725L424.576 599.402L643.559 599.402L862.543 599.402L863.277 589.211C865.731 555.853 878.619 524.543 900.428 499.019C904.166 494.658 907.239 490.777 907.239 490.475C907.239 490.172 788.608 489.959 643.559 489.959ZM1203.02 490.165C1158.28 489.86 1131.36 490.073 1131.36 490.681C1131.36 491.218 1132.57 492.811 1134.04 494.181C1153.26 512.07 1170.39 549.551 1174.61 582.827C1175.83 592.339 1176.03 592.818 1178.12 592.298C1183.83 590.862 1220.29 584.565 1228.78 583.547C1250.72 580.912 1265.95 570.404 1273.24 552.867C1278.22 540.913 1280.12 501.755 1276.13 493.667L1274.69 490.681L1203.02 490.165ZM278.266 531.554C277.853 535.076 281.385 550.308 282.898 551.425C285.283 553.184 285.856 553.088 291.544 549.982C296.405 547.338 297.323 545.453 293.722 545.453C292.736 545.453 291.383 544.974 290.718 544.32C289.365 542.954 285.925 544.985 286.911 546.586C287.232 547.086 287.026 547.513 286.499 547.513C285.994 547.513 284.733 545.655 283.724 543.394C282.715 541.13 281.545 539.275 281.155 539.275C280.742 539.275 279.986 537.353 279.412 534.952C278.816 532.547 278.335 530.987 278.266 531.554ZM1008.85 534.23C1008.62 534.267 1006.54 534.916 1004.11 535.673C998.235 537.512 993.763 539.679 989.59 542.777L986.196 545.35L990.622 547.719C1002.48 553.973 1005.21 553.984 1006.9 547.719C1008.14 543.11 1009.43 534.129 1008.85 534.23ZM257.053 534.436C256.755 534.127 256.457 534.923 256.434 536.289C256.411 539.319 254.347 542.364 252.214 542.364C250.403 542.364 247.834 545.107 249.027 545.763C250.082 546.343 247.742 545.722 245.518 544.836C244.44 544.394 244.05 544.534 244.509 545.247C244.876 545.861 244.692 546.488 244.096 546.689C242.101 547.348 244.303 550.829 246.344 550.292C247.398 550.015 248.086 550.127 247.788 550.602C247.1 551.721 250.999 553.035 252.421 552.145C254.645 550.778 255.287 547.203 253.567 545.556C252.65 544.687 252.283 544.307 252.833 544.733C255.127 546.494 256.296 545.192 256.961 540.202C257.328 537.31 257.374 534.751 257.053 534.436ZM1029.54 534.849C1029.54 551.081 1034.7 555.174 1046.65 548.439L1052.49 545.144L1050.04 543.084C1045.38 539.264 1029.54 532.902 1029.54 534.849ZM238.73 545.043C236.184 544.965 236.093 545.096 237.698 546.277C239.67 547.714 242.422 547.579 241.918 546.07C241.757 545.554 240.289 545.089 238.73 545.043ZM1064.65 560.999C1064.26 561.041 1061.78 563.6 1059.1 566.765C1051.76 575.408 1052.17 577.515 1061.87 582.003C1071.57 586.484 1071.02 586.734 1070.31 579.121C1069.72 572.732 1066.02 560.871 1064.65 560.999ZM313.995 561.618C313.674 561.265 312.917 561.465 312.252 562.132C310.738 563.641 310.692 565.015 312.137 565.015C312.733 565.015 312.871 564.607 312.55 564.088C312.229 563.572 312.573 562.9 313.284 562.648C313.995 562.394 314.316 561.967 313.995 561.618ZM221.53 561.722C221.53 562.373 222.012 562.955 222.562 562.955C223.136 562.955 223.594 563.492 223.594 564.088C223.594 564.689 223.067 564.797 222.356 564.398C221.347 563.818 221.347 563.909 222.356 565.015C223.25 565.957 224.007 566.145 224.741 565.428C225.452 564.712 225.131 563.724 223.709 562.442C222.54 561.38 221.53 561.052 221.53 561.722ZM974.454 562.235C973.422 562.27 972.597 563.51 971.587 566.044C969.822 570.466 967.345 584.358 968.193 585.195C969.157 586.166 983.948 578.673 984.659 576.855C985.416 574.899 983.994 572.154 978.788 565.838C976.77 563.403 975.486 562.201 974.454 562.235ZM227.103 566.868C226.186 566.469 225.704 566.939 225.36 568.31C224.947 569.851 225.383 571.36 226.782 572.736L228.846 574.796L227.722 571.81C226.736 569.182 226.851 569.01 228.227 570.163C230.016 571.649 230.222 573.057 228.846 575.208C228.066 576.438 227.47 576.254 225.658 574.179C223.617 571.812 223.549 571.798 224.122 573.869C224.489 575.211 224.099 576.782 223.09 577.781C222.173 578.692 221.874 579.43 222.356 579.43C222.861 579.43 223.755 578.873 224.42 578.194C225.36 577.261 225.658 577.277 225.658 578.194C225.658 578.859 224.512 580.141 223.09 581.077C218.962 583.785 220.934 583.875 226.576 581.283C233.822 577.963 234.992 575.387 231.323 570.986C229.328 568.595 228.02 567.267 227.103 566.868ZM309.454 567.074C308.606 567.2 307.62 567.744 306.886 568.62C305.9 569.821 305.785 570.496 306.679 571.399C307.344 572.051 307.918 573.103 307.918 573.663C307.918 574.225 307.207 573.731 306.381 572.633C304.569 570.271 302.62 572.216 303.079 575.825C303.331 577.813 313.788 584.175 314.912 583.033C315.187 582.76 314.82 582.517 314.109 582.517C313.009 582.517 313.032 582.166 314.109 580.87C314.82 579.997 316.173 579.531 317.091 579.841C318.375 580.29 318.306 580.132 316.884 579.017C315.898 578.247 315.118 577.32 315.118 576.958C315.118 576.596 315.898 576.279 316.884 576.238C317.87 576.192 318.169 575.894 317.503 575.619C316.838 575.351 314.408 576.107 312.137 577.268C307.069 579.854 305.51 578.401 310.486 575.722C315.027 573.282 315.118 571.232 310.692 571.193C307.941 571.165 307.78 570.929 309.248 570.06C310.257 569.484 311.014 568.537 311.014 568.001C311.014 567.232 310.326 566.95 309.454 567.074ZM988.259 604.757C987.503 604.59 983.742 604.668 979.912 604.86C971.954 605.264 972.023 605.151 976.013 611.449C985.187 625.912 988.649 627.201 990.943 616.904C992.571 609.582 992.433 605.067 990.53 605.064C990.048 605.064 989.016 604.924 988.259 604.757ZM1058.36 604.963C1053.85 604.775 1049.21 604.966 1048.07 605.477C1045.41 606.674 1045.43 609.598 1048.18 618.656L1050.34 625.862L1055.8 620.509C1058.78 617.558 1062.45 612.926 1063.94 610.213L1066.62 605.271L1058.36 604.963ZM227.929 605.271C218.022 605.392 217.563 605.404 222.975 606.094C226.3 606.521 229.305 607.387 229.672 607.949C233.364 613.751 236.712 616.242 235.428 612.272C235.061 611.093 235.221 610.213 235.84 610.213C236.46 610.213 236.987 610.981 236.987 611.862C236.987 612.744 237.446 613.137 238.019 612.788C238.569 612.437 239.051 612.632 239.051 613.199C239.051 613.763 238.592 614.48 238.019 614.847C237.423 615.21 237.193 616.361 237.492 617.317C237.813 618.273 237.537 620.64 236.987 622.569C236.437 624.495 236.391 625.566 236.872 625.039C237.377 624.511 238.546 620.741 239.464 616.597C241.918 605.395 241.551 605.106 227.929 605.271ZM304.615 605.271C299.914 605.172 296.497 605.541 296.084 606.197C295.695 606.805 295.695 609.467 296.084 612.066C296.474 614.668 297.139 616.255 297.529 615.671C297.896 615.086 299.226 614.315 300.51 613.919C301.772 613.522 302.781 612.566 302.781 611.758C302.781 610.947 303.239 610.213 303.813 610.213C304.363 610.213 304.822 609.561 304.822 608.773C304.822 607.965 306.588 606.945 308.743 606.404C312.229 605.53 311.77 605.422 304.615 605.271ZM1019.86 619.583C1017.77 619.34 1015.71 621.463 1012.16 625.862C1009.29 629.389 1006.9 632.81 1006.9 633.482C1006.9 635.198 1018.39 636.257 1026.26 635.232L1032.73 634.409L1027.89 627.715C1024.1 622.47 1021.97 619.824 1019.86 619.583ZM267.877 619.686C266.547 619.78 265.148 620.833 263.451 622.979C260.906 626.149 260.401 630.701 262.717 629.261C263.199 628.965 263.428 628.043 263.13 627.304C262.465 625.561 265.286 623.115 266.226 624.628C266.593 625.22 266.41 625.658 265.813 625.658C262.763 625.658 265.24 628.307 268.496 628.54C274 628.935 275.629 626.22 272.189 622.362C270.492 620.459 269.184 619.59 267.877 619.686ZM260.654 628.437C260.676 627.263 260.241 627.518 258.406 629.671C257.466 630.76 256.182 632.785 255.517 634.099C254.714 635.7 255.356 635.269 257.466 632.863C259.232 630.884 260.654 628.861 260.654 628.437Z" fill="#1f1f27" fill-rule="nonzero" opacity="1" stroke="none"/>
<path d="M702.657 35.1957C640.418 36.3332 572.193 40.6055 538.711 45.4649C497.364 51.4664 470.349 61.9443 443.587 82.3796C393.365 120.714 340.367 168.455 271.386 237.51C246.481 262.435 224.856 283.4 223.342 284.095C221.599 284.881 220.544 286.168 220.544 287.512C220.544 290.028 206.647 305.668 203.597 306.603C184.609 312.382 119.893 341.176 93.4518 355.608C33.3225 388.424 18.875 407.413 11.8805 462.726C10.7339 471.773 9.33499 481.393 8.7846 484.104C8.21129 486.819 7.75264 489.248 7.75264 489.505C7.75264 489.759 41.3031 489.966 82.2836 489.966C123.287 489.966 156.815 490.358 156.815 490.835C156.815 491.314 155.829 492.584 154.636 493.662C137.528 508.995 119.939 543.596 114.733 572.142C111.5 589.931 111.316 595.765 113.999 596.279C120.283 597.483 136.061 599.957 137.46 599.957C138.721 599.957 139.157 598.214 139.615 591.477C142.528 547.586 169.359 506.495 208.207 486.457C294.158 442.128 394.282 502.03 397.332 599.595C397.355 600.414 401.414 600.787 410.725 600.819L424.094 600.87L424.094 594.346C424.094 575.24 413.843 538.853 404.556 524.917C403.592 523.504 402.583 521.654 402.262 520.805C401.345 518.251 390.269 503.253 384.237 496.389L378.596 489.966L643.559 489.966C942.371 489.966 910.105 488.938 901.482 498.189C881.095 520.088 865.478 557.697 863.368 590.142C862.612 601.395 862.061 600.957 876.899 600.957C890.314 600.957 890.773 600.746 890.773 594.774C890.773 518.881 969.707 457.557 1045.75 474.369C1102.49 486.918 1147.78 539.463 1147.78 592.77C1147.78 599.139 1147.14 598.98 1161.42 596.118C1176.88 593.02 1175.73 594.474 1173.92 580.419C1169.84 548.978 1156.52 519.973 1135.12 496.001L1130.21 490.479L1181.28 490.213L1232.35 489.945L1231.99 459.376C1231.78 442.559 1231.71 409.027 1231.83 384.858L1232.06 340.91L1249.28 340.947C1267.67 340.986 1270.19 341.55 1272.78 346.167C1275.22 350.501 1274.3 88.5668 1271.87 80.4142C1266.75 63.396 1257.76 52.1337 1243.87 45.3732C1232.1 39.6446 1242.33 40.1813 1076.32 36.5579C1031.9 35.5856 739.601 34.5238 702.657 35.1957M476.518 160.86C476.518 161.341 484.98 161.687 495.346 161.63L514.174 161.531L517.866 164.348C519.907 165.9 522.039 168.668 522.59 170.516C523.92 174.862 524.791 240 523.943 270.656L523.278 294.456L520.067 298.923C518.141 301.592 515.458 303.886 513.394 304.617C508.922 306.202 420.998 306.502 420.998 304.934C420.998 303.576 417.581 303.613 416.228 304.986C415.517 305.688 409.578 305.918 399.304 305.645C380.385 305.14 356.26 305.055 297.139 305.28L252.925 305.447L252.627 295.738C252.467 290.397 251.802 285.4 251.182 284.636C250.265 283.544 251.136 282.079 255.127 277.898C257.925 274.956 267.143 265.162 275.606 256.131C298.424 231.726 332.41 197.708 346.995 184.657C354.058 178.332 359.745 172.812 359.631 172.397C359.539 171.982 359.998 171.64 360.663 171.636C361.351 171.633 364.08 170.095 366.74 168.214C371.074 165.139 372.542 164.724 381.119 164.088C386.37 163.703 389.328 163.313 387.677 163.229C386.026 163.144 384.879 162.891 385.109 162.669C385.338 162.444 391.897 162.559 399.671 162.926C407.812 163.309 413.935 163.196 414.119 162.662C414.279 162.151 425.264 161.522 438.519 161.261C451.774 161.002 462.827 160.61 463.057 160.389C463.928 159.578 476.518 160.02 476.518 160.86M432.74 187.872C432.511 188.262 431.318 188.321 430.103 188.005C427.901 187.427 427.901 187.438 429.782 190.638C432.189 194.69 431.02 195.937 427.03 193.637C422.489 191.034 413.798 192.587 413.798 195.997C413.798 196.547 412.995 196.999 411.986 196.999C410.449 196.999 410.22 197.71 410.564 201.232C410.793 203.647 410.472 205.766 409.83 206.168C408.317 207.096 410.656 213.444 412.49 213.444C413.27 213.444 413.798 214.708 413.798 216.528C413.798 218.226 414.164 219.613 414.623 219.613C415.082 219.613 416.068 221.347 416.825 223.468C419.164 230.031 424.14 236.184 426.479 235.441C428.039 234.939 428.36 235.166 427.878 236.452C427.098 238.441 432.235 241.3 440.009 243.217C446.27 244.761 456.567 242.075 456.338 238.968C456.269 237.961 456.75 237.459 457.53 237.757C458.791 238.241 462.277 235.769 466.382 231.497C467.437 230.403 468.285 228.435 468.285 227.128C468.285 225.72 468.905 224.752 469.799 224.752C471.794 224.752 474.729 219.008 473.973 216.611C473.514 215.21 474.202 214.4 476.656 213.382C478.467 212.635 479.408 211.841 478.743 211.621C477.16 211.093 477.183 208.592 478.789 208.062C480.417 207.511 478.009 198.964 476.312 199.322C475.67 199.455 474.179 197.946 473.01 195.969C469.478 190.057 461.199 191.628 462.461 197.967C463.378 202.487 460.832 207.277 457.53 207.277C450.673 207.277 449.733 194.151 456.475 192.578C457.966 192.225 457.736 192.064 455.627 191.977C451.568 191.809 447.99 193.786 449.893 195.151C450.994 195.924 450.88 196.02 449.435 195.552C448.403 195.215 447.142 194.942 446.614 194.942C445.146 194.942 445.513 192.715 447.302 190.718C448.839 189.023 448.724 188.867 445.513 188.36C439.344 187.381 433.198 187.147 432.74 187.872M426.25 195.059C429.919 198.73 427.488 207.277 422.764 207.277C417.558 207.277 415.036 200.093 418.499 195.169C420.494 192.298 423.452 192.254 426.25 195.059M756.617 198.329C773.243 207.06 772.624 236.695 755.677 244.394C752.42 245.878 748.935 246.3 739.922 246.316L728.364 246.339L728.364 221.326C728.364 207.566 728.708 195.953 729.121 195.515C731.093 193.497 751.389 195.568 756.617 198.329M832.708 196.229C832.937 196.933 833.281 206.298 833.441 217.042L833.717 236.574L843.738 236.867L853.783 237.163L853.783 241.75L853.783 246.339L837.844 246.339L821.906 246.339L821.906 221.326C821.906 207.566 822.204 196.004 822.594 195.628C823.833 194.385 832.226 194.882 832.708 196.229M874.835 221.154L874.835 246.852L868.941 247.162L863.024 247.469L863.024 221.154L863.024 194.837L868.941 195.146L874.835 195.456L874.835 221.154M892.264 195.891C892.608 196.414 895.084 205.292 897.813 215.613C900.542 225.935 903.088 233.831 903.523 233.164C903.936 232.492 906.092 224.66 908.339 215.756C913.797 193.967 913.27 194.942 919.53 194.942C926.043 194.942 926.204 192.851 917.283 221.959L909.784 246.407L902.629 246.114L895.474 245.825L888.067 221.177C884.008 207.624 880.889 196.176 881.164 195.735C881.852 194.609 891.576 194.745 892.264 195.891M962.735 200.042L962.735 205.147L952.806 205.438L942.853 205.736L942.784 210.362L942.692 214.987L951.43 215.501L960.167 216.015L960.488 220.383L960.809 224.752L952.003 224.752C947.164 224.752 943.174 225.098 943.128 225.523C942.991 226.954 942.968 234.508 943.082 235.803C943.174 236.739 946.018 237.088 953.494 237.088L963.767 237.088L963.767 241.713L963.767 246.339L947.325 246.339L930.882 246.339L930.882 221.326C930.882 207.566 931.18 196.004 931.547 195.628C931.937 195.249 939.092 194.942 947.485 194.942L962.735 194.942L962.735 200.042M1004.54 197.295C1014.36 202.487 1016.03 215.153 1007.89 222.883L1003.9 226.685L1009.01 235.384C1015.46 246.341 1015.46 246.339 1008.1 246.339L1002.06 246.339L998.189 238.885C990.278 223.665 986.379 223.069 986.379 237.088L986.379 246.339L980.21 246.339L974.041 246.339L974.041 222.264C974.041 209.027 974.339 197.41 974.706 196.451C975.647 193.997 999.588 194.671 1004.54 197.295M1029.24 200.081C1030.5 202.624 1032.5 207.596 1033.71 211.132C1036.03 217.992 1037.2 219.024 1038.16 215.125C1038.5 213.79 1040.45 208.702 1042.5 203.819L1046.21 194.942L1051.37 194.942L1056.53 194.942L1055.93 197.997C1055.59 199.68 1052.29 207.383 1048.6 215.116C1041.99 228.953 1041.9 229.311 1041.9 237.757L1041.9 246.339L1036.23 246.339L1030.59 246.339L1030.59 237.2L1030.59 228.059L1023.39 212.93C1014.59 194.451 1014.63 194.745 1021.58 195.144C1026.86 195.447 1027.04 195.559 1029.24 200.081M478.559 197.549C478.559 197.848 479.316 199.235 480.233 200.629C481.196 202.095 481.701 204.438 481.449 206.193C481.196 207.86 481.38 208.991 481.839 208.704C483.031 207.965 482.893 201.352 481.609 198.985C480.646 197.183 478.559 196.201 478.559 197.549M740.427 204.81C740.014 205.225 739.67 212.657 739.67 221.326L739.67 237.088L743.523 237.072C753.59 237.033 758.154 226.986 756.755 218.054C755.792 211.752 751.847 206 744.784 204.714C742.812 204.351 740.84 204.395 740.427 204.81M986.379 211.389L986.379 218.586L990.736 218.572C997.341 218.549 999.451 217.659 1000.83 214.327C1003.3 208.346 999.038 204.193 990.415 204.193L986.379 204.193L986.379 211.389M443.61 215.182C445.697 215.907 442.188 217.382 438.152 217.485C435.377 217.554 431.823 215.304 432.946 214.187C433.52 213.607 441.156 214.318 443.61 215.182M453.379 223.5C453.379 224.133 453.93 225.19 454.595 225.855C458.47 229.731 449.664 236.06 440.422 236.06C433.795 236.06 425.103 231.889 425.103 228.715C425.103 228.164 424.53 228.013 423.819 228.38C423.131 228.742 423.704 228.066 425.103 226.873C427.098 225.197 428.383 224.878 430.768 225.468C438.611 227.399 452.462 225.796 451.43 223.083C451.04 222.09 451.292 221.656 452.095 221.925C452.806 222.158 453.379 222.872 453.379 223.5M443.358 253.264C438.335 253.659 437.67 254.246 435.354 260.291L434.299 263.075L437.968 260.282C439.987 258.743 443.587 256.372 445.972 255.009C448.357 253.645 449.825 252.608 449.274 252.705C448.701 252.799 446.041 253.049 443.358 253.264M323.604 277.933C319.843 278.27 317.114 280.263 320.416 280.263C321.081 280.263 323.237 281.508 325.232 283.031C327.456 284.723 330.346 285.87 332.685 285.987C334.772 286.085 336.95 286.457 337.524 286.812C338.303 287.294 340.826 282.646 340.826 280.724C340.826 279.011 330.415 277.325 323.604 277.933M1273.98 418.008C1273.82 436.101 1274.05 450.904 1274.46 450.904C1274.89 450.904 1275.24 436.101 1275.24 418.008C1275.24 399.916 1275.01 385.115 1274.76 385.115C1274.48 385.115 1274.14 399.916 1273.98 418.008M120.283 388.156C122.737 390.869 122.003 394.272 115.811 408.823C108.197 426.662 98.4053 447.705 97.144 448.85C96.8229 449.129 95.4699 450.98 94.1398 452.961C85.8611 465.148 71.5512 474.376 57.6081 476.536C31.9924 480.504 18.875 481.914 17.2238 480.868C16.1689 480.194 16.49 476.277 18.9208 461.096C20.572 450.684 22.269 439.865 22.6588 437.051C25.2961 418.145 52.6776 400.609 95.6533 390.277C114.32 385.787 117.875 385.485 120.283 388.156M1274.21 471.383C1274.21 483.07 1274.09 483.787 1271.55 486.803L1268.89 489.966L1272.05 489.966L1275.24 489.966L1275.24 474.546C1275.24 466.067 1275.01 459.128 1274.73 459.128C1274.44 459.128 1274.21 464.643 1274.21 471.383M810.394 200.338L810.715 205.223L800.373 205.223L790.03 205.223L790.03 210.362L790.03 215.501L798.767 215.501L807.505 215.501L807.505 220.083L807.505 224.67L799.042 224.965L790.557 225.266L790.236 231.178L789.938 237.088L800.785 237.088L811.632 237.088L811.632 241.713L811.632 246.339L795.19 246.339L778.724 246.339L778.724 221.326C778.724 207.566 779.045 195.99 779.435 195.602C779.825 195.21 786.888 195.015 795.121 195.174L810.073 195.456L810.394 200.338" fill="#fc814a" fill-rule="evenodd" opacity="1" stroke="none"/>
<path d="M463.057 160.389C462.827 160.61 451.866 160.997 438.725 161.259C411.023 161.802 414.073 160.633 412.146 171.445C411.298 176.169 409.945 181.309 409.165 182.861C407.537 186.063 408.592 186.466 412.261 184.06C413.614 183.162 415.219 182.726 415.816 183.093C416.412 183.457 416.893 183.297 416.893 182.74C416.893 177.566 441.225 176.646 457.484 181.203C465.786 183.533 469.57 183.668 471.014 181.694C472.046 180.279 472.688 180.242 475.991 181.432C480.967 183.237 480.898 183.549 478.376 170.975L476.151 159.99L469.822 159.99C466.336 159.99 463.286 160.172 463.057 160.389M386.301 162.754C387.287 163.015 388.916 163.015 389.902 162.754C390.888 162.497 390.085 162.286 388.113 162.286C386.118 162.286 385.315 162.497 386.301 162.754M524.195 238.629C524.218 247.109 524.379 250.444 524.562 246.036C524.745 241.628 524.745 234.689 524.562 230.616C524.356 226.541 524.195 230.148 524.195 238.629M450.421 252.991C445.513 254.739 432.488 263.6 431.157 266.102C429.827 268.576 417.123 278.043 406.528 284.459C396.231 290.69 386.393 290.156 347.293 281.244C341.17 279.848 341.101 279.871 339.771 283.953C338.257 288.509 338.395 288.645 348.531 292.048C368.001 298.591 380.591 303.117 383.114 304.489C387.15 306.661 415.082 306.601 416.893 304.42C417.581 303.569 418.797 302.877 419.577 302.877C420.356 302.877 420.998 303.569 420.998 304.42C420.998 305.771 426.571 305.931 465.969 305.727C490.713 305.599 501.606 305.358 490.209 305.191L469.455 304.89L468.446 299.515C467.873 296.559 466.428 286.968 465.212 278.208C461.841 253.705 459.525 249.749 450.421 252.991M514.036 303.427C512.339 304.204 511.674 304.86 512.545 304.888C513.44 304.913 515.045 304.255 516.146 303.425C518.577 301.579 518.072 301.583 514.036 303.427M253.315 305.213C253.751 305.649 263.543 305.879 275.101 305.725L296.107 305.443L274.298 304.929C262.328 304.649 252.879 304.775 253.315 305.213M330.277 305.677C332.112 305.906 335.139 305.906 336.973 305.677C338.808 305.447 337.294 305.262 333.625 305.262C329.956 305.262 328.442 305.447 330.277 305.677M1231.8 384.858C1231.69 409.027 1231.57 433.427 1231.55 439.083L1231.55 449.363L1252.88 449.639L1274.21 449.916L1274.21 399.476C1274.21 335.514 1276.55 340.91 1248.98 340.91L1232.06 340.91L1231.8 384.858" fill="#ffffff" fill-rule="evenodd" opacity="1" stroke="none"/>
<path d="M703.62 166.313L1091.5 166.313L1091.5 275.355L703.62 275.355L703.62 166.313Z" fill="#fc814a" fill-rule="nonzero" opacity="1" stroke="none"/>
</g>
<path d="M371.968 159.353L449.366 159.353L526.764 159.353L526.764 234.23L526.764 309.105L449.366 309.105L231.277 308.708L246.045 282.494L371.968 159.353Z" fill="#1f1f27" fill-rule="nonzero" opacity="1" stroke="none"/>
<path d="M1229.26 341.208C1229.26 340.718 1229.66 340.321 1230.14 340.321L1232.18 340.321L1235.09 340.321L1238.01 340.321L1240.93 340.321L1243.85 340.321L1246.78 340.321L1249.7 340.321L1252.63 340.321L1255.54 340.321L1258.46 340.321L1261.38 340.321L1264.3 340.321L1266.59 340.347L1268.89 340.374L1271.18 340.4L1272.65 340.417C1273.12 340.422 1273.5 340.783 1273.53 341.244L1274.1 349.757L1274.72 359.087L1275.35 368.417L1275.97 377.717C1275.97 377.737 1275.97 377.757 1275.97 377.777L1275.97 387.104L1275.97 396.461L1275.97 405.818L1275.97 415.175L1275.97 424.532L1275.97 433.888L1275.97 443.245L1275.97 452.601L1275.97 461.958L1275.97 471.314L1275.97 480.671L1275.97 489.141C1275.97 489.63 1275.58 490.027 1275.09 490.027L1273.05 490.027L1270.14 490.027L1267.22 490.027L1264.3 490.027L1261.38 490.027L1258.46 490.027L1255.54 490.027L1252.63 490.027L1249.7 490.027L1246.78 490.027L1243.85 490.027L1240.93 490.027L1238.01 490.027L1235.09 490.027L1232.18 490.027L1230.14 490.027C1229.66 490.027 1229.26 489.63 1229.26 489.141L1229.26 480.671L1229.26 471.314L1229.26 461.958L1229.26 452.601L1229.26 443.245L1229.26 433.888L1229.26 424.532L1229.26 415.175L1229.26 405.818L1229.26 396.461L1229.26 387.104L1229.26 377.747L1229.26 368.391L1229.26 359.034L1229.26 349.678L1229.26 341.208Z" fill="#1f1f27" fill-rule="nonzero" opacity="1" stroke="none"/>
</g>
</g>
<g id="Layer-2">
<g fill="#f8f8f8" opacity="0.5" stroke="none">
<path d="M671.559 217.473C676.806 217.473 681.292 216.487 685.016 214.514C688.74 212.541 691.594 209.716 693.58 206.037C695.566 202.359 696.559 197.961 696.559 192.844L696.559 186.36L672.203 186.36L672.203 195.149L685.074 195.149L685.035 195.949C684.944 198.267 684.329 200.292 683.189 202.024C682.05 203.755 680.501 205.097 678.541 206.047C676.581 206.998 674.319 207.473 671.754 207.473C668.629 207.473 665.921 206.701 663.629 205.158C661.337 203.615 659.566 201.392 658.316 198.488C657.066 195.585 656.441 192.102 656.441 188.039L656.441 188C656.441 184.016 657.037 180.617 658.229 177.805C659.42 174.992 661.129 172.847 663.355 171.369C665.582 169.891 668.245 169.153 671.344 169.153C674.521 169.153 677.203 169.911 679.391 171.428C681.578 172.945 683.141 175.064 684.078 177.785L684.215 178.196L696.051 178.196L695.934 177.629C695.322 174.087 693.925 170.927 691.744 168.147C689.563 165.367 686.741 163.173 683.277 161.565C679.814 159.957 675.823 159.153 671.305 159.153C665.797 159.153 661.031 160.311 657.008 162.629C652.984 164.947 649.879 168.264 647.691 172.58C645.504 176.897 644.41 182.069 644.41 188.098L644.41 188.137C644.41 194.257 645.507 199.504 647.701 203.879C649.895 208.254 653.02 211.613 657.076 213.957C661.132 216.301 665.96 217.473 671.559 217.473Z"/>
<path d="M703.355 216.496L714.762 216.496L714.762 193.059C714.762 191.028 715.11 189.309 715.807 187.903C716.503 186.496 717.519 185.429 718.854 184.699C720.188 183.97 721.793 183.606 723.668 183.606C724.501 183.606 725.283 183.664 726.012 183.781C726.741 183.899 727.34 184.055 727.809 184.25L727.809 174.211C727.379 174.081 726.881 173.974 726.314 173.889C725.748 173.804 725.146 173.762 724.508 173.762C722.073 173.762 720.032 174.478 718.385 175.91C716.738 177.343 715.608 179.348 714.996 181.926L714.762 181.926L714.762 174.621L703.355 174.621L703.355 216.496Z"/>
<path d="M750.152 217.356C753.134 217.356 755.742 216.965 757.975 216.184C760.208 215.403 762.099 214.361 763.648 213.059C765.198 211.757 766.425 210.328 767.33 208.772C768.235 207.216 768.85 205.669 769.176 204.133L769.273 203.684L758.805 203.684L758.727 203.918C758.466 204.712 757.975 205.487 757.252 206.242C756.529 206.998 755.595 207.619 754.449 208.108C753.303 208.596 751.949 208.84 750.387 208.84C748.408 208.84 746.702 208.404 745.27 207.531C743.837 206.659 742.734 205.403 741.959 203.762C741.184 202.121 740.797 200.149 740.797 197.844L740.797 193.41C740.797 191.028 741.184 189.006 741.959 187.346C742.734 185.686 743.805 184.426 745.172 183.567C746.539 182.707 748.108 182.278 749.879 182.278C751.65 182.278 753.206 182.694 754.547 183.528C755.888 184.361 756.936 185.604 757.691 187.258C758.447 188.912 758.824 190.962 758.824 193.41L758.824 197.805L764.234 191.086L735.152 191.086L735.152 198.274L769.625 198.274L769.625 194.758C769.625 190.539 768.814 186.854 767.193 183.703C765.572 180.552 763.271 178.108 760.289 176.369C757.307 174.631 753.772 173.762 749.684 173.762C745.595 173.762 742.044 174.657 739.029 176.447C736.015 178.238 733.681 180.767 732.027 184.035C730.374 187.304 729.547 191.158 729.547 195.598L729.547 195.637C729.547 200.09 730.374 203.944 732.027 207.199C733.681 210.455 736.048 212.961 739.127 214.719C742.206 216.477 745.882 217.356 750.152 217.356Z"/>
<path d="M787.945 217.16C789.781 217.16 791.484 216.884 793.053 216.33C794.622 215.777 796.021 214.983 797.252 213.947C798.482 212.912 799.495 211.685 800.289 210.266L800.523 210.266L800.523 216.496L811.93 216.496L811.93 187.785C811.93 184.973 811.194 182.515 809.723 180.412C808.251 178.309 806.184 176.675 803.521 175.51C800.859 174.345 797.724 173.762 794.117 173.762C790.432 173.762 787.258 174.332 784.596 175.471C781.933 176.61 779.853 178.179 778.355 180.178C776.858 182.177 775.999 184.472 775.777 187.063L775.738 187.531L786.168 187.531L786.246 187.16C786.533 185.806 787.304 184.69 788.561 183.811C789.817 182.932 791.507 182.492 793.629 182.492C795.868 182.492 797.577 183.03 798.756 184.104C799.934 185.178 800.523 186.646 800.523 188.508L800.523 201.203C800.523 202.649 800.136 203.951 799.361 205.11C798.587 206.268 797.532 207.18 796.197 207.844C794.863 208.508 793.342 208.84 791.637 208.84C789.671 208.84 788.098 208.404 786.92 207.531C785.742 206.659 785.152 205.455 785.152 203.918L785.152 203.86C785.152 202.375 785.725 201.184 786.871 200.285C788.017 199.387 789.69 198.873 791.891 198.742L806.5 197.785L806.5 190.696L790.172 191.711C784.977 192.037 780.96 193.287 778.121 195.461C775.283 197.636 773.863 200.63 773.863 204.446L773.863 204.504C773.863 206.965 774.456 209.149 775.641 211.057C776.826 212.964 778.476 214.459 780.592 215.539C782.708 216.62 785.159 217.16 787.945 217.16Z"/>
<path d="M835.895 217.356C837.079 217.356 838.134 217.31 839.059 217.219C839.983 217.128 840.764 217.03 841.402 216.926L841.402 208.586C841.051 208.625 840.68 208.664 840.289 208.703C839.898 208.742 839.449 208.762 838.941 208.762C837.21 208.762 835.911 208.381 835.045 207.619C834.179 206.858 833.746 205.5 833.746 203.547L833.746 183.215L841.402 183.215L841.402 174.621L833.746 174.621L833.746 164.406L822.223 164.406L822.223 174.621L816.402 174.621L816.402 183.215L822.223 183.215L822.223 204.797C822.223 209.276 823.339 212.489 825.572 214.436C827.805 216.382 831.246 217.356 835.895 217.356Z"/>
<path d="M889.527 217.473C894.085 217.473 898.147 216.594 901.715 214.836C905.283 213.078 908.157 210.653 910.338 207.561C912.519 204.468 913.785 200.923 914.137 196.926L914.176 196.516L902.691 196.516L902.613 196.906C902.118 199.133 901.272 201.034 900.074 202.61C898.876 204.185 897.389 205.39 895.611 206.223C893.834 207.056 891.813 207.473 889.547 207.473C886.552 207.473 883.941 206.698 881.715 205.149C879.488 203.599 877.77 201.386 876.559 198.508C875.348 195.63 874.742 192.219 874.742 188.274L874.742 188.235C874.742 184.289 875.348 180.894 876.559 178.049C877.77 175.204 879.482 173.01 881.695 171.467C883.909 169.924 886.52 169.153 889.527 169.153C891.884 169.153 893.951 169.579 895.729 170.432C897.506 171.285 898.967 172.479 900.113 174.016C901.259 175.552 902.053 177.362 902.496 179.446L902.652 180.11L914.137 180.11L914.098 179.738C913.746 175.741 912.486 172.196 910.318 169.104C908.15 166.011 905.286 163.58 901.725 161.809C898.163 160.038 894.098 159.153 889.527 159.153C884.046 159.153 879.296 160.318 875.279 162.649C871.262 164.979 868.16 168.316 865.973 172.658C863.785 177.001 862.691 182.199 862.691 188.254L862.691 188.293C862.691 194.348 863.782 199.553 865.963 203.908C868.144 208.264 871.246 211.613 875.27 213.957C879.293 216.301 884.046 217.473 889.527 217.473Z"/>
<path d="M939.664 217.356C943.896 217.356 947.561 216.49 950.66 214.758C953.759 213.026 956.158 210.536 957.857 207.287C959.557 204.039 960.406 200.136 960.406 195.578L960.406 195.5C960.406 190.969 959.547 187.082 957.828 183.84C956.109 180.598 953.697 178.108 950.592 176.369C947.486 174.631 943.837 173.762 939.645 173.762C935.478 173.762 931.842 174.634 928.736 176.379C925.631 178.124 923.219 180.621 921.5 183.869C919.781 187.118 918.922 190.995 918.922 195.5L918.922 195.578C918.922 200.11 919.768 204.003 921.461 207.258C923.154 210.513 925.553 213.01 928.658 214.748C931.764 216.487 935.432 217.356 939.664 217.356ZM939.703 208.41C937.828 208.41 936.204 207.909 934.83 206.906C933.456 205.904 932.395 204.446 931.646 202.531C930.898 200.617 930.523 198.3 930.523 195.578L930.523 195.5C930.523 192.792 930.901 190.487 931.656 188.586C932.411 186.685 933.476 185.23 934.85 184.221C936.223 183.212 937.822 182.707 939.645 182.707C941.493 182.707 943.105 183.209 944.479 184.211C945.852 185.214 946.917 186.669 947.672 188.576C948.427 190.484 948.805 192.792 948.805 195.5L948.805 195.578C948.805 198.3 948.434 200.617 947.691 202.531C946.949 204.446 945.898 205.904 944.537 206.906C943.176 207.909 941.565 208.41 939.703 208.41Z"/>
<path d="M966.285 216.496L977.691 216.496L977.691 191.223C977.691 189.647 977.997 188.261 978.609 187.063C979.221 185.865 980.071 184.924 981.158 184.24C982.245 183.557 983.505 183.215 984.938 183.215C987.06 183.215 988.717 183.843 989.908 185.1C991.1 186.356 991.695 188.117 991.695 190.383L991.695 216.496L1002.69 216.496L1002.69 191.047C1002.69 189.485 1002.99 188.117 1003.58 186.946C1004.17 185.774 1005.01 184.859 1006.09 184.201C1007.17 183.544 1008.43 183.215 1009.86 183.215C1012.07 183.215 1013.77 183.863 1014.94 185.158C1016.11 186.454 1016.7 188.313 1016.7 190.735L1016.7 216.496L1028.1 216.496L1028.1 187.863C1028.1 185.038 1027.53 182.571 1026.38 180.461C1025.24 178.352 1023.64 176.708 1021.59 175.53C1019.54 174.351 1017.14 173.762 1014.39 173.762C1012.35 173.762 1010.46 174.117 1008.72 174.826C1006.98 175.536 1005.48 176.535 1004.22 177.824C1002.97 179.113 1002.03 180.643 1001.4 182.414L1001.17 182.414C1000.71 180.565 999.947 179 998.873 177.717C997.799 176.434 996.48 175.455 994.918 174.778C993.355 174.1 991.591 173.762 989.625 173.762C986.826 173.762 984.387 174.481 982.311 175.92C980.234 177.359 978.772 179.276 977.926 181.672L977.691 181.672L977.691 174.621L966.285 174.621L966.285 216.496Z"/>
<path d="M1054.47 217.356C1058.21 217.356 1061.46 216.649 1064.22 215.237C1066.99 213.824 1069.17 211.906 1070.76 209.485C1072.35 207.063 1073.23 204.328 1073.41 201.281L1073.43 201.028L1062.81 201.028L1062.75 201.379C1062.37 203.502 1061.49 205.204 1060.09 206.487C1058.7 207.769 1056.86 208.41 1054.57 208.41C1052.69 208.41 1051.07 207.909 1049.69 206.906C1048.32 205.904 1047.26 204.446 1046.52 202.531C1045.78 200.617 1045.41 198.3 1045.41 195.578L1045.41 195.539C1045.41 192.87 1045.78 190.578 1046.52 188.664C1047.26 186.75 1048.32 185.279 1049.68 184.25C1051.05 183.222 1052.67 182.707 1054.53 182.707C1056.88 182.707 1058.76 183.381 1060.14 184.729C1061.53 186.076 1062.39 187.746 1062.73 189.738L1062.79 190.09L1073.39 190.09L1073.38 189.817C1073.23 186.796 1072.37 184.074 1070.8 181.653C1069.22 179.231 1067.04 177.31 1064.24 175.891C1061.45 174.472 1058.16 173.762 1054.37 173.762C1050.19 173.762 1046.56 174.641 1043.48 176.399C1040.4 178.156 1038.02 180.66 1036.33 183.908C1034.65 187.157 1033.8 191.015 1033.8 195.481L1033.8 195.52C1033.8 200.012 1034.64 203.892 1036.31 207.16C1037.99 210.429 1040.37 212.945 1043.46 214.709C1046.56 216.474 1050.22 217.356 1054.47 217.356Z"/>
<path d="M1091.38 217.16C1093.22 217.16 1094.92 216.884 1096.49 216.33C1098.06 215.777 1099.46 214.983 1100.69 213.947C1101.92 212.912 1102.93 211.685 1103.73 210.266L1103.96 210.266L1103.96 216.496L1115.37 216.496L1115.37 187.785C1115.37 184.973 1114.63 182.515 1113.16 180.412C1111.69 178.309 1109.62 176.675 1106.96 175.51C1104.3 174.345 1101.16 173.762 1097.55 173.762C1093.87 173.762 1090.7 174.332 1088.03 175.471C1085.37 176.61 1083.29 178.179 1081.79 180.178C1080.3 182.177 1079.44 184.472 1079.21 187.063L1079.18 187.531L1089.61 187.531L1089.68 187.16C1089.97 185.806 1090.74 184.69 1092 183.811C1093.25 182.932 1094.94 182.492 1097.07 182.492C1099.31 182.492 1101.01 183.03 1102.19 184.104C1103.37 185.178 1103.96 186.646 1103.96 188.508L1103.96 201.203C1103.96 202.649 1103.57 203.951 1102.8 205.11C1102.02 206.268 1100.97 207.18 1099.63 207.844C1098.3 208.508 1096.78 208.84 1095.07 208.84C1093.11 208.84 1091.54 208.404 1090.36 207.531C1089.18 206.659 1088.59 205.455 1088.59 203.918L1088.59 203.86C1088.59 202.375 1089.16 201.184 1090.31 200.285C1091.45 199.387 1093.13 198.873 1095.33 198.742L1109.94 197.785L1109.94 190.696L1093.61 191.711C1088.41 192.037 1084.4 193.287 1081.56 195.461C1078.72 197.636 1077.3 200.63 1077.3 204.446L1077.3 204.504C1077.3 206.965 1077.89 209.149 1079.08 211.057C1080.26 212.964 1081.91 214.459 1084.03 215.539C1086.15 216.62 1088.6 217.16 1091.38 217.16Z"/>
<path d="M1139.33 217.356C1140.52 217.356 1141.57 217.31 1142.5 217.219C1143.42 217.128 1144.2 217.03 1144.84 216.926L1144.84 208.586C1144.49 208.625 1144.12 208.664 1143.73 208.703C1143.34 208.742 1142.89 208.762 1142.38 208.762C1140.65 208.762 1139.35 208.381 1138.48 207.619C1137.62 206.858 1137.18 205.5 1137.18 203.547L1137.18 183.215L1144.84 183.215L1144.84 174.621L1137.18 174.621L1137.18 164.406L1125.66 164.406L1125.66 174.621L1119.84 174.621L1119.84 183.215L1125.66 183.215L1125.66 204.797C1125.66 209.276 1126.78 212.489 1129.01 214.436C1131.24 216.382 1134.68 217.356 1139.33 217.356Z"/>
<path d="M646.188 311.496L683.531 311.496L683.531 301.77L657.984 301.77L657.984 287.61L682.086 287.61L682.086 278.391L657.984 278.391L657.984 264.856L683.531 264.856L683.531 255.129L646.188 255.129L646.188 311.496Z"/>
<path d="M691.051 311.496L702.457 311.496L702.457 287.434C702.457 285.598 702.799 283.99 703.482 282.61C704.166 281.229 705.133 280.152 706.383 279.377C707.633 278.602 709.104 278.215 710.797 278.215C713.362 278.215 715.286 278.967 716.568 280.471C717.851 281.975 718.492 284.094 718.492 286.828L718.492 311.496L729.898 311.496L729.898 284.465C729.898 279.556 728.642 275.712 726.129 272.932C723.616 270.152 720.061 268.762 715.465 268.762C712.301 268.762 709.651 269.452 707.516 270.832C705.38 272.212 703.772 274.107 702.691 276.516L702.457 276.516L702.457 269.621L691.051 269.621L691.051 311.496Z"/>
<path d="M756.676 326.028C760.868 326.028 764.495 325.367 767.555 324.045C770.615 322.724 772.975 320.884 774.635 318.528C776.295 316.171 777.125 313.436 777.125 310.324L777.125 269.621L765.719 269.621L765.719 276.789L765.465 276.789C764.71 275.149 763.714 273.729 762.477 272.531C761.24 271.334 759.801 270.406 758.16 269.748C756.52 269.091 754.71 268.762 752.73 268.762C749.202 268.762 746.158 269.612 743.6 271.311C741.041 273.01 739.065 275.445 737.672 278.615C736.279 281.786 735.582 285.604 735.582 290.071L735.582 290.11C735.582 294.433 736.266 298.147 737.633 301.252C739 304.358 740.956 306.744 743.502 308.41C746.048 310.077 749.065 310.91 752.555 310.91C754.573 310.91 756.422 310.617 758.102 310.031C759.781 309.446 761.249 308.622 762.506 307.561C763.762 306.5 764.755 305.233 765.484 303.762L765.719 303.762L765.719 310.188C765.719 312.518 764.951 314.387 763.414 315.793C761.878 317.199 759.638 317.903 756.695 317.903C754.312 317.903 752.379 317.515 750.895 316.74C749.41 315.966 748.44 315.064 747.984 314.035L747.867 313.762L736.754 313.762L736.812 314.113C737.177 316.353 738.199 318.375 739.879 320.178C741.559 321.981 743.821 323.407 746.666 324.455C749.511 325.503 752.848 326.028 756.676 326.028ZM756.5 302.551C754.612 302.551 752.965 302.059 751.559 301.076C750.152 300.093 749.072 298.69 748.316 296.867C747.561 295.044 747.184 292.877 747.184 290.363L747.184 290.324C747.184 287.811 747.564 285.653 748.326 283.85C749.088 282.046 750.169 280.656 751.568 279.68C752.968 278.703 754.612 278.215 756.5 278.215C758.349 278.215 759.967 278.707 761.354 279.69C762.74 280.673 763.821 282.069 764.596 283.879C765.37 285.689 765.758 287.844 765.758 290.344L765.758 290.383C765.758 292.87 765.374 295.025 764.605 296.848C763.837 298.671 762.76 300.077 761.373 301.067C759.986 302.056 758.362 302.551 756.5 302.551Z"/>
<path d="M784.781 311.496L796.188 311.496L796.188 269.621L784.781 269.621L784.781 311.496ZM790.484 264.25C792.203 264.25 793.648 263.664 794.82 262.492C795.992 261.321 796.578 259.927 796.578 258.313C796.578 256.672 795.992 255.272 794.82 254.113C793.648 252.955 792.203 252.375 790.484 252.375C788.779 252.375 787.337 252.955 786.158 254.113C784.98 255.272 784.391 256.672 784.391 258.313C784.391 259.927 784.98 261.321 786.158 262.492C787.337 263.664 788.779 264.25 790.484 264.25Z"/>
<path d="M803.824 311.496L815.23 311.496L815.23 287.434C815.23 285.598 815.572 283.99 816.256 282.61C816.939 281.229 817.906 280.152 819.156 279.377C820.406 278.602 821.878 278.215 823.57 278.215C826.135 278.215 828.059 278.967 829.342 280.471C830.624 281.975 831.266 284.094 831.266 286.828L831.266 311.496L842.672 311.496L842.672 284.465C842.672 279.556 841.415 275.712 838.902 272.932C836.389 270.152 832.835 268.762 828.238 268.762C825.074 268.762 822.424 269.452 820.289 270.832C818.154 272.212 816.546 274.107 815.465 276.516L815.23 276.516L815.23 269.621L803.824 269.621L803.824 311.496Z"/>
<path d="M868.961 312.356C871.943 312.356 874.55 311.965 876.783 311.184C879.016 310.403 880.908 309.361 882.457 308.059C884.007 306.757 885.234 305.328 886.139 303.772C887.044 302.216 887.659 300.669 887.984 299.133L888.082 298.684L877.613 298.684L877.535 298.918C877.275 299.712 876.783 300.487 876.061 301.242C875.338 301.998 874.404 302.619 873.258 303.108C872.112 303.596 870.758 303.84 869.195 303.84C867.216 303.84 865.51 303.404 864.078 302.531C862.646 301.659 861.542 300.403 860.768 298.762C859.993 297.121 859.605 295.149 859.605 292.844L859.605 288.41C859.605 286.028 859.993 284.006 860.768 282.346C861.542 280.686 862.613 279.426 863.98 278.567C865.348 277.707 866.917 277.278 868.688 277.278C870.458 277.278 872.014 277.694 873.355 278.528C874.697 279.361 875.745 280.604 876.5 282.258C877.255 283.912 877.633 285.962 877.633 288.41L877.633 292.805L883.043 286.086L853.961 286.086L853.961 293.274L888.434 293.274L888.434 289.758C888.434 285.539 887.623 281.854 886.002 278.703C884.381 275.552 882.079 273.108 879.098 271.369C876.116 269.631 872.581 268.762 868.492 268.762C864.404 268.762 860.852 269.657 857.838 271.447C854.824 273.238 852.49 275.767 850.836 279.035C849.182 282.304 848.355 286.158 848.355 290.598L848.355 290.637C848.355 295.09 849.182 298.944 850.836 302.199C852.49 305.455 854.856 307.961 857.936 309.719C861.015 311.477 864.69 312.356 868.961 312.356Z"/>
<path d="M913.355 312.356C916.337 312.356 918.945 311.965 921.178 311.184C923.411 310.403 925.302 309.361 926.852 308.059C928.401 306.757 929.628 305.328 930.533 303.772C931.438 302.216 932.053 300.669 932.379 299.133L932.477 298.684L922.008 298.684L921.93 298.918C921.669 299.712 921.178 300.487 920.455 301.242C919.732 301.998 918.798 302.619 917.652 303.108C916.507 303.596 915.152 303.84 913.59 303.84C911.611 303.84 909.905 303.404 908.473 302.531C907.04 301.659 905.937 300.403 905.162 298.762C904.387 297.121 904 295.149 904 292.844L904 288.41C904 286.028 904.387 284.006 905.162 282.346C905.937 280.686 907.008 279.426 908.375 278.567C909.742 277.707 911.311 277.278 913.082 277.278C914.853 277.278 916.409 277.694 917.75 278.528C919.091 279.361 920.139 280.604 920.895 282.258C921.65 283.912 922.027 285.962 922.027 288.41L922.027 292.805L927.438 286.086L898.355 286.086L898.355 293.274L932.828 293.274L932.828 289.758C932.828 285.539 932.018 281.854 930.396 278.703C928.775 275.552 926.474 273.108 923.492 271.369C920.51 269.631 916.975 268.762 912.887 268.762C908.798 268.762 905.247 269.657 902.232 271.447C899.218 273.238 896.884 275.767 895.23 279.035C893.577 282.304 892.75 286.158 892.75 290.598L892.75 290.637C892.75 295.09 893.577 298.944 895.23 302.199C896.884 305.455 899.251 307.961 902.33 309.719C905.41 311.477 909.085 312.356 913.355 312.356Z"/>
<path d="M938.688 311.496L950.094 311.496L950.094 288.059C950.094 286.028 950.442 284.309 951.139 282.903C951.835 281.496 952.851 280.429 954.186 279.699C955.52 278.97 957.125 278.606 959 278.606C959.833 278.606 960.615 278.664 961.344 278.781C962.073 278.899 962.672 279.055 963.141 279.25L963.141 269.211C962.711 269.081 962.213 268.974 961.646 268.889C961.08 268.804 960.478 268.762 959.84 268.762C957.405 268.762 955.364 269.478 953.717 270.91C952.07 272.343 950.94 274.348 950.328 276.926L950.094 276.926L950.094 269.621L938.688 269.621L938.688 311.496Z"/>
<path d="M968.004 311.496L979.41 311.496L979.41 269.621L968.004 269.621L968.004 311.496ZM973.707 264.25C975.426 264.25 976.871 263.664 978.043 262.492C979.215 261.321 979.801 259.927 979.801 258.313C979.801 256.672 979.215 255.272 978.043 254.113C976.871 252.955 975.426 252.375 973.707 252.375C972.001 252.375 970.559 252.955 969.381 254.113C968.202 255.272 967.613 256.672 967.613 258.313C967.613 259.927 968.202 261.321 969.381 262.492C970.559 263.664 972.001 264.25 973.707 264.25Z"/>
<path d="M987.047 311.496L998.453 311.496L998.453 287.434C998.453 285.598 998.795 283.99 999.479 282.61C1000.16 281.229 1001.13 280.152 1002.38 279.377C1003.63 278.602 1005.1 278.215 1006.79 278.215C1009.36 278.215 1011.28 278.967 1012.56 280.471C1013.85 281.975 1014.49 284.094 1014.49 286.828L1014.49 311.496L1025.89 311.496L1025.89 284.465C1025.89 279.556 1024.64 275.712 1022.12 272.932C1019.61 270.152 1016.06 268.762 1011.46 268.762C1008.3 268.762 1005.65 269.452 1003.51 270.832C1001.38 272.212 999.768 274.107 998.688 276.516L998.453 276.516L998.453 269.621L987.047 269.621L987.047 311.496Z"/>
<path d="M1052.67 326.028C1056.86 326.028 1060.49 325.367 1063.55 324.045C1066.61 322.724 1068.97 320.884 1070.63 318.528C1072.29 316.171 1073.12 313.436 1073.12 310.324L1073.12 269.621L1061.71 269.621L1061.71 276.789L1061.46 276.789C1060.71 275.149 1059.71 273.729 1058.47 272.531C1057.24 271.334 1055.8 270.406 1054.16 269.748C1052.52 269.091 1050.71 268.762 1048.73 268.762C1045.2 268.762 1042.15 269.612 1039.6 271.311C1037.04 273.01 1035.06 275.445 1033.67 278.615C1032.27 281.786 1031.58 285.604 1031.58 290.071L1031.58 290.11C1031.58 294.433 1032.26 298.147 1033.63 301.252C1035 304.358 1036.95 306.744 1039.5 308.41C1042.04 310.077 1045.06 310.91 1048.55 310.91C1050.57 310.91 1052.42 310.617 1054.1 310.031C1055.78 309.446 1057.25 308.622 1058.5 307.561C1059.76 306.5 1060.75 305.233 1061.48 303.762L1061.71 303.762L1061.71 310.188C1061.71 312.518 1060.95 314.387 1059.41 315.793C1057.87 317.199 1055.63 317.903 1052.69 317.903C1050.31 317.903 1048.38 317.515 1046.89 316.74C1045.41 315.966 1044.44 315.064 1043.98 314.035L1043.86 313.762L1032.75 313.762L1032.81 314.113C1033.17 316.353 1034.2 318.375 1035.88 320.178C1037.55 321.981 1039.82 323.407 1042.66 324.455C1045.51 325.503 1048.84 326.028 1052.67 326.028ZM1052.5 302.551C1050.61 302.551 1048.96 302.059 1047.55 301.076C1046.15 300.093 1045.07 298.69 1044.31 296.867C1043.56 295.044 1043.18 292.877 1043.18 290.363L1043.18 290.324C1043.18 287.811 1043.56 285.653 1044.32 283.85C1045.08 282.046 1046.16 280.656 1047.56 279.68C1048.96 278.703 1050.61 278.215 1052.5 278.215C1054.35 278.215 1055.96 278.707 1057.35 279.69C1058.74 280.673 1059.82 282.069 1060.59 283.879C1061.37 285.689 1061.75 287.844 1061.75 290.344L1061.75 290.383C1061.75 292.87 1061.37 295.025 1060.6 296.848C1059.83 298.671 1058.76 300.077 1057.37 301.067C1055.98 302.056 1054.36 302.551 1052.5 302.551Z"/>
</g>
</g>
</svg>
